<svg width="19" height="20" viewBox="0 0 19 20" fill="none" xmlns="http://www.w3.org/2000/svg">
<g clip-path="url(#clip0_0_298)">
<path fill-rule="evenodd" clip-rule="evenodd" d="M12.0126 12.5452C12.3165 12.2413 12.8092 12.2413 13.1131 12.5452L14.8973 14.3294L16.6815 12.5452C16.9854 12.2413 17.4781 12.2413 17.782 12.5452C18.0859 12.8491 18.0859 13.3418 17.782 13.6457L15.9978 15.4299L17.782 17.2141C18.0859 17.518 18.0859 18.0107 17.782 18.3146C17.4781 18.6185 16.9854 18.6185 16.6815 18.3146L14.8973 16.5304L13.1131 18.3146C12.8092 18.6185 12.3165 18.6185 12.0126 18.3146C11.7087 18.0107 11.7087 17.518 12.0126 17.2141L13.7968 15.4299L12.0126 13.6457C11.7087 13.3418 11.7087 12.8491 12.0126 12.5452Z" fill="#5B6B79"/>
<g opacity="0.4">
<path d="M9.45063 1.61768C7.19437 1.61768 5.36532 3.44673 5.36532 5.70299C5.36532 7.95925 7.19437 9.78831 9.45063 9.78831C11.7069 9.78831 13.5359 7.95925 13.5359 5.70299C13.5359 3.44673 11.7069 1.61768 9.45063 1.61768Z" fill="#5B6B79"/>
<path d="M7.42349 11.0431C8.25134 10.9263 9.09312 10.9263 9.92097 11.0431C10.3208 11.0995 10.7176 11.1832 11.1081 11.2941C11.2858 11.3446 11.3179 11.5892 11.1873 11.7199C10.4276 12.4796 10.4276 13.7113 11.1873 14.4711L11.816 15.0998C11.9716 15.2554 12.0494 15.3332 12.0494 15.4299C12.0494 15.5266 11.9716 15.6044 11.816 15.7601L11.1873 16.3888C10.8184 16.7577 10.6286 17.2379 10.618 17.7214C10.6107 18.0504 10.6071 18.2149 10.5391 18.2814C10.471 18.348 10.3377 18.348 10.071 18.348H5.24124C3.82632 18.348 2.7324 17.6521 1.82083 16.7836C1.29245 16.2802 1.02907 15.7136 1.09507 15.1099C1.15712 14.5422 1.49846 14.0788 1.85771 13.7272C2.43212 13.165 3.27068 12.6919 3.82536 12.3789C3.95186 12.3076 4.06369 12.2445 4.15416 12.1906C5.16953 11.586 6.2839 11.2038 7.42349 11.0431Z" fill="#5B6B79"/>
</g>
</g>
<defs>
<clipPath id="clip0_0_298">
<rect width="18.6757" height="18.6757" fill="white" transform="translate(0.112305 0.64502)"/>
</clipPath>
</defs>
</svg>
