<svg width="25" height="6" viewBox="0 0 25 6" fill="none" xmlns="http://www.w3.org/2000/svg">
<path fill-rule="evenodd" clip-rule="evenodd" d="M0 2.87319C0 1.28637 1.28177 0 2.8629 0H2.88347C4.46461 0 5.74638 1.28637 5.74638 2.87319C5.74638 4.46001 4.46461 5.74638 2.88347 5.74638H2.8629C1.28177 5.74638 0 4.46001 0 2.87319Z" fill="#5B6B79"/>
<path fill-rule="evenodd" clip-rule="evenodd" d="M18.6758 2.87319C18.6758 1.28637 19.9575 0 21.5387 0H21.5593C23.1404 0 24.4222 1.28637 24.4222 2.87319C24.4222 4.46001 23.1404 5.74638 21.5593 5.74638H21.5387C19.9575 5.74638 18.6758 4.46001 18.6758 2.87319Z" fill="#5B6B79"/>
<path fill-rule="evenodd" clip-rule="evenodd" d="M8.61951 2.87319C8.61951 1.28637 9.90127 0 11.4824 0H11.503C13.0841 0 14.3659 1.28637 14.3659 2.87319C14.3659 4.46001 13.0841 5.74638 11.503 5.74638H11.4824C9.90127 5.74638 8.61951 4.46001 8.61951 2.87319Z" fill="#5B6B79"/>
</svg>
