<svg width="35" height="35" viewBox="0 0 35 35" fill="none" xmlns="http://www.w3.org/2000/svg">
<path opacity="0.4" fill-rule="evenodd" clip-rule="evenodd" d="M1.79578 17.3911C1.79578 25.9202 8.71002 32.8345 17.2392 32.8345C25.7683 32.8345 32.6826 25.9202 32.6826 17.3911C32.6826 8.86194 25.7683 1.9477 17.2392 1.9477C8.71002 1.9477 1.79578 8.86194 1.79578 17.3911Z" fill="#5B6B79"/>
<path fill-rule="evenodd" clip-rule="evenodd" d="M15.4379 17.3912C15.4379 16.3994 16.2418 15.5955 17.2336 15.5955H17.2465C18.2383 15.5955 19.0423 16.3994 19.0423 17.3912C19.0423 18.383 18.2383 19.1869 17.2465 19.1869H17.2336C16.2418 19.1869 15.4379 18.383 15.4379 17.3912Z" fill="#5B6B79"/>
<path fill-rule="evenodd" clip-rule="evenodd" d="M21.1898 17.3912C21.1898 16.3994 21.9938 15.5955 22.9856 15.5955H22.9985C23.9902 15.5955 24.7942 16.3994 24.7942 17.3912C24.7942 18.383 23.9902 19.1869 22.9985 19.1869H22.9856C21.9938 19.1869 21.1898 18.383 21.1898 17.3912Z" fill="#5B6B79"/>
<path fill-rule="evenodd" clip-rule="evenodd" d="M9.69702 17.3912C9.69702 16.3994 10.501 15.5955 11.4928 15.5955H11.5057C12.4974 15.5955 13.3014 16.3994 13.3014 17.3912C13.3014 18.383 12.4974 19.1869 11.5057 19.1869H11.4928C10.501 19.1869 9.69702 18.383 9.69702 17.3912Z" fill="#5B6B79"/>
</svg>
