<svg width="19" height="19" viewBox="0 0 19 19" fill="none" xmlns="http://www.w3.org/2000/svg">
<g clip-path="url(#clip0_0_295)">
<path opacity="0.4" d="M14.1034 1.12448C14.6156 0.903332 15.1965 0.903332 15.7088 1.12448C15.9147 1.21336 16.0877 1.34169 16.2551 1.48844C16.4155 1.62907 16.5983 1.8119 16.8156 2.02916L16.842 2.05559C17.0592 2.27284 17.2421 2.45566 17.3827 2.61606C17.5295 2.78345 17.6578 2.95645 17.7467 3.16236C17.9678 3.67466 17.9678 4.25549 17.7467 4.76779C17.6578 4.9737 17.5295 5.1467 17.3827 5.3141C17.2421 5.47449 17.0593 5.65729 16.842 5.87453L16.842 5.87456L12.843 9.87356L12.843 9.87357C11.9554 10.7614 11.4065 11.3106 10.7111 11.6395C10.0157 11.9685 9.13294 12.0555 7.88357 12.1785L7.2702 12.239C7.09627 12.2562 6.9238 12.1945 6.80021 12.0709C6.67663 11.9473 6.61493 11.7749 6.6321 11.6009L6.69262 10.9876C6.81568 9.7382 6.90264 8.85541 7.23161 8.16003C7.56057 7.46466 8.10972 6.91569 8.99759 6.02813L12.9966 2.02918C13.2138 1.81191 13.3966 1.62908 13.557 1.48844C13.7244 1.34169 13.8974 1.21336 14.1034 1.12448Z" fill="#5B6B79"/>
<path fill-rule="evenodd" clip-rule="evenodd" d="M0.987671 13.0201C0.987671 11.8382 1.94575 10.8801 3.1276 10.8801H4.87845C5.30821 10.8801 5.6566 11.2285 5.6566 11.6583C5.6566 12.088 5.30821 12.4364 4.87845 12.4364H3.1276C2.80528 12.4364 2.54398 12.6977 2.54398 13.0201C2.54398 13.3424 2.80528 13.6037 3.1276 13.6037H10.5201C11.7019 13.6037 12.66 14.5617 12.66 15.7436C12.66 16.9254 11.7019 17.8835 10.5201 17.8835H8.76922C8.33946 17.8835 7.99107 17.5351 7.99107 17.1054C7.99107 16.6756 8.33946 16.3272 8.76922 16.3272H10.5201C10.8424 16.3272 11.1037 16.0659 11.1037 15.7436C11.1037 15.4213 10.8424 15.16 10.5201 15.16H3.1276C1.94575 15.16 0.987671 14.2019 0.987671 13.0201Z" fill="#5B6B79"/>
</g>
<defs>
<clipPath id="clip0_0_295">
<rect width="18.6757" height="18.6757" fill="white" transform="translate(0.112305 0.083252)"/>
</clipPath>
</defs>
</svg>
