<svg width="23" height="23" viewBox="0 0 23 23" fill="none" xmlns="http://www.w3.org/2000/svg">
<g clip-path="url(#clip0_0_1189)">
<path d="M10.9323 7.58496L14.1105 10.7633L14.1257 10.5968C14.1257 8.92689 12.7686 7.56982 11.0987 7.56982L10.9323 7.58496Z" fill="#193345"/>
<path d="M11.0989 5.55174C13.8836 5.55174 16.1438 7.81187 16.1438 10.5967C16.1438 11.2475 16.0126 11.868 15.7856 12.438L18.7369 15.3893C20.2604 14.118 21.4611 12.4734 22.2027 10.5967C20.4522 6.16725 16.1488 3.0293 11.0989 3.0293C9.68631 3.0293 8.33431 3.28153 7.07812 3.73557L9.25753 5.90991C9.82754 5.68795 10.4481 5.55174 11.0989 5.55174Z" fill="#193345"/>
<path d="M1.00897 2.80256L3.30944 5.10304L3.76855 5.56215C2.10373 6.86373 0.787006 8.59415 0 10.5969C1.74555 15.0264 6.05389 18.1643 11.0988 18.1643C12.6628 18.1643 14.156 17.8616 15.5232 17.3117L15.952 17.7405L18.8932 20.6867L20.1797 19.4054L2.29542 1.51611L1.00897 2.80256ZM6.58867 8.3772L8.14754 9.93608C8.10214 10.153 8.07187 10.3699 8.07187 10.5969C8.07187 12.2668 9.42893 13.6239 11.0988 13.6239C11.3258 13.6239 11.5428 13.5936 11.7547 13.5482L13.3135 15.1071C12.6426 15.4401 11.8959 15.6419 11.0988 15.6419C8.31402 15.6419 6.05389 13.3817 6.05389 10.5969C6.05389 9.79987 6.2557 9.05321 6.58867 8.3772Z" fill="#193345"/>
</g>
<defs>
<clipPath id="clip0_0_1189">
<rect width="22.2026" height="22.2026" fill="white"/>
</clipPath>
</defs>
</svg>
