<svg width="11" height="21" viewBox="0 0 11 21" fill="none" xmlns="http://www.w3.org/2000/svg">
<path fill-rule="evenodd" clip-rule="evenodd" d="M9.62559 0.485426C8.91301 -0.105365 7.85641 -0.00663196 7.26562 0.705952L1.18588 8.03905C1.17417 8.05317 1.16224 8.06754 1.15011 8.08215C0.974574 8.29359 0.758265 8.55415 0.597062 8.80551C0.400594 9.11185 0.175775 9.56558 0.175775 10.1558C0.175775 10.746 0.400594 11.1997 0.597062 11.506C0.758265 11.7574 0.974574 12.0179 1.15011 12.2294C1.16224 12.244 1.17417 12.2584 1.18588 12.2725L7.26562 19.6056C7.85641 20.3182 8.91301 20.4169 9.62559 19.8261C10.3382 19.2353 10.4369 18.1787 9.84612 17.4661L3.78521 10.1558L9.84612 2.84539C10.4369 2.13281 10.3382 1.07622 9.62559 0.485426Z" fill="#5B6B79"/>
</svg>
