<svg width="22" height="22" viewBox="0 0 22 22" fill="none" xmlns="http://www.w3.org/2000/svg">
<path opacity="0.4" d="M11.5347 1.14575C13.323 1.14574 14.7314 1.14573 15.8319 1.28547C16.9585 1.42852 17.8662 1.72852 18.5849 2.40737C19.3093 3.09146 19.6344 3.96421 19.7885 5.04636C19.9375 6.09327 19.9375 7.42987 19.9375 9.1122V9.11226V12.8876V12.8877C19.9375 14.57 19.9375 15.9066 19.7885 16.9535C19.6344 18.0356 19.3093 18.9084 18.5849 19.5925C17.8662 20.2713 16.9585 20.5713 15.8319 20.7144C14.7314 20.8541 13.323 20.8541 11.5347 20.8541H10.4653C8.67704 20.8541 7.26863 20.8541 6.16811 20.7144C5.04155 20.5713 4.13384 20.2713 3.41506 19.5925C2.69073 18.9084 2.36555 18.0356 2.2115 16.9535C2.06247 15.9066 2.06248 14.57 2.0625 12.8876V12.8876V9.11221V9.1122C2.06248 7.42987 2.06247 6.09327 2.2115 5.04636C2.36555 3.96421 2.69073 3.09146 3.41506 2.40737C4.13384 1.72852 5.04155 1.42852 6.16811 1.28547C7.26862 1.14573 8.67703 1.14574 10.4653 1.14575H11.5347H11.5347Z" fill="#9DB9D1"/>
<path fill-rule="evenodd" clip-rule="evenodd" d="M6.41666 6.41667C6.41666 5.91041 6.82706 5.5 7.33332 5.5H14.6667C15.1729 5.5 15.5833 5.91041 15.5833 6.41667C15.5833 6.92293 15.1729 7.33333 14.6667 7.33333H7.33332C6.82706 7.33333 6.41666 6.92293 6.41666 6.41667Z" fill="#9DB9D1"/>
<path fill-rule="evenodd" clip-rule="evenodd" d="M6.41666 10.9999C6.41666 10.4937 6.82706 10.0833 7.33332 10.0833H14.6667C15.1729 10.0833 15.5833 10.4937 15.5833 10.9999C15.5833 11.5062 15.1729 11.9166 14.6667 11.9166H7.33332C6.82706 11.9166 6.41666 11.5062 6.41666 10.9999Z" fill="#9DB9D1"/>
<path fill-rule="evenodd" clip-rule="evenodd" d="M6.41666 15.5832C6.41666 15.0769 6.82706 14.6665 7.33332 14.6665L11 14.6665C11.5063 14.6665 11.9167 15.0769 11.9167 15.5832C11.9167 16.0894 11.5063 16.4998 11 16.4998H7.33332C6.82706 16.4998 6.41666 16.0894 6.41666 15.5832Z" fill="#9DB9D1"/>
</svg>
