<svg xmlns="http://www.w3.org/2000/svg" width="322.402" height="206.305" viewBox="0 0 322.402 206.305">
  <g id="Group_5479" data-name="Group 5479" transform="translate(-388.698 -157.409)">
    <path id="Path_4240" data-name="Path 4240" d="M515.393,184.8l-.008.14a6.685,6.685,0,0,1-5.409,6.241,210.525,210.525,0,0,0-109.8,58.372,6.723,6.723,0,1,1-9.508-9.507,223.774,223.774,0,0,1,116.844-62.092A6.635,6.635,0,0,1,515.393,184.8Z" transform="translate(0 -3.255)" fill="#999"/>
    <path id="Path_4241" data-name="Path 4241" d="M746.227,249.552a6.728,6.728,0,0,1-9.508,0,210.563,210.563,0,0,0-109.8-58.373,6.683,6.683,0,0,1-5.408-6.237l-.008-.14a6.635,6.635,0,0,1,7.877-6.85,223.829,223.829,0,0,1,116.851,62.092A6.712,6.712,0,0,1,746.227,249.552Z" transform="translate(-37.1 -3.255)" fill="#999"/>
    <path id="Path_4242" data-name="Path 4242" d="M523.763,223.51h0a6.707,6.707,0,0,1-5.267,7.517,177.035,177.035,0,0,0-90.047,48.646,6.723,6.723,0,1,1-9.508-9.508,190.386,190.386,0,0,1,96.772-52.307A6.745,6.745,0,0,1,523.763,223.51Z" transform="translate(-4.505 -9.612)" fill="#999"/>
    <path id="Path_4243" data-name="Path 4243" d="M721.719,279.673a6.728,6.728,0,0,1-9.508,0,177.054,177.054,0,0,0-90.056-48.645,6.707,6.707,0,0,1-5.267-7.518h0a6.744,6.744,0,0,1,8.048-5.652,190.367,190.367,0,0,1,96.782,52.307A6.728,6.728,0,0,1,721.719,279.673Z" transform="translate(-36.357 -9.612)" fill="#999"/>
    <path id="Path_4244" data-name="Path 4244" d="M532.961,263.225h0a6.712,6.712,0,0,1-5.191,7.5,143.882,143.882,0,0,0-71.051,39.045,6.726,6.726,0,0,1-9.508-9.516,157.19,157.19,0,0,1,77.629-42.664A6.739,6.739,0,0,1,532.961,263.225Z" transform="translate(-9.011 -15.94)" fill="#999"/>
    <path id="Path_4245" data-name="Path 4245" d="M697.065,309.766a6.728,6.728,0,0,1-9.508,0,143.909,143.909,0,0,0-71.06-39.044,6.712,6.712,0,0,1-5.191-7.5h0a6.739,6.739,0,0,1,8.12-5.639,157.216,157.216,0,0,1,77.639,42.664A6.73,6.73,0,0,1,697.065,309.766Z" transform="translate(-35.467 -15.94)" fill="#999"/>
    <path id="Path_4246" data-name="Path 4246" d="M542.163,302.99h0a6.725,6.725,0,0,1-5.082,7.47,110.42,110.42,0,0,0-52.091,29.408,6.723,6.723,0,0,1-9.508-9.508,123.723,123.723,0,0,1,58.467-32.985A6.721,6.721,0,0,1,542.163,302.99Z" transform="translate(-13.516 -22.276)" fill="#999"/>
    <path id="Path_4247" data-name="Path 4247" d="M672.41,339.867a6.728,6.728,0,0,1-9.508,0,110.445,110.445,0,0,0-52.1-29.408,6.726,6.726,0,0,1-5.082-7.47h0a6.721,6.721,0,0,1,8.215-5.615A123.706,123.706,0,0,1,672.41,330.36,6.712,6.712,0,0,1,672.41,339.867Z" transform="translate(-34.576 -22.276)" fill="#999"/>
    <path id="Path_4248" data-name="Path 4248" d="M551.276,342.1h0a7.594,7.594,0,0,1-5.376,8.34,76.885,76.885,0,0,0-32.671,19.49,6.723,6.723,0,1,1-9.508-9.508,90.138,90.138,0,0,1,39.868-23.318A6.092,6.092,0,0,1,551.276,342.1Z" transform="translate(-18.017 -28.603)" fill="#999"/>
    <path id="Path_4249" data-name="Path 4249" d="M647.776,369.965a6.728,6.728,0,0,1-9.508,0,76.771,76.771,0,0,0-33.4-19.7,6.7,6.7,0,0,1-4.759-7.386h0a6.735,6.735,0,0,1,8.516-5.537,90.2,90.2,0,0,1,39.152,23.116A6.72,6.72,0,0,1,647.776,369.965Z" transform="translate(-33.682 -28.635)" fill="#999"/>
    <g id="Group_5478" data-name="Group 5478" transform="translate(523.738 157.409)">
      <path id="Path_4250" data-name="Path 4250" d="M601.556,185.755c-.034.479-.092.958-.16,1.446l-2.606,18.544-1.875,13.324-2.808,19.99-1.875,13.324-1.69,12.046-1.118,7.944L587.552,285.7l-2.808,19.99-1.875,13.332-2.194,15.6a5.225,5.225,0,0,1-10.348,0l-2.194-15.6-1.875-13.332-2.808-19.99-1.875-13.324-1.118-7.944-1.7-12.046-1.866-13.324-2.816-19.99L552.2,205.745,549.6,187.2c-.067-.488-.126-.967-.16-1.446a26.154,26.154,0,1,1,52.119,0Z" transform="translate(-549.339 -157.409)" fill="#ccc"/>
    </g>
    <circle id="Ellipse_21" data-name="Ellipse 21" cx="7.865" cy="7.865" r="7.865" transform="translate(542.03 347.984)" fill="#1a1a1a"/>
  </g>
</svg>
