<svg width="136" height="59" viewBox="0 0 136 59" fill="none" xmlns="http://www.w3.org/2000/svg">
<path d="M16.7734 26.1387L16.5547 26.8906C16.4727 27.2096 16.377 27.4193 16.2676 27.5195C16.1582 27.6107 15.9349 27.6973 15.5977 27.7793C15.4336 27.834 15.3242 27.875 15.2695 27.9023L15.5703 28.1484C15.5065 28.3854 15.3607 28.6178 15.1328 28.8457C14.8958 28.8639 14.7272 28.8958 14.627 28.9414C14.5267 28.987 14.4128 29.0872 14.2852 29.2422L14.5176 29.3516L13.9844 29.7754L13.2734 30.0762L12.9727 30.3086L12.166 30.5C12.0931 30.5091 11.847 30.6413 11.4277 30.8965L10.9492 31.1699L10.7578 31.1152L10.1426 31.334L8.99414 31.6211L8.26953 31.8672L7.59961 31.8125L7.20312 32.0176L6.80664 31.9902L6.5332 32.0996L6.16406 32.0449C5.89974 32.0449 5.63086 32.0996 5.35742 32.209L4.20898 32.6875L3.92188 32.7969L3.86719 33.043L3.99023 34.6152L3.86719 34.9023L4.07227 36.2695V36.543C3.78971 36.5703 3.64844 36.6751 3.64844 36.8574V36.9121L3.99023 37.6641L4.09961 39.4277L4.1543 40.0977C4.1543 40.3346 4.05859 40.485 3.86719 40.5488L3.42969 40.6855L3.00586 41.082L2.66406 41.1094L2.02148 41.4512C1.94857 41.4876 1.90299 41.5059 1.88477 41.5059C1.67513 41.5059 1.57031 41.3828 1.57031 41.1367C1.57031 41.0456 1.57943 40.9818 1.59766 40.9453L1.88477 40.4395L1.80273 39.6328L2.07617 37.418L1.88477 36.4062L2.13086 35.0117L2.07617 34.5059L2.30859 33.6582V33.248H2.10352L2.07617 32.9609L2.13086 32.7148L2.30859 32.3184L2.28125 32.0996L2.30859 31.7578L2.10352 31.4844L2.02148 29.9395L2.07617 29.5703L2.10352 28.9551L2.22656 28.5449L2.02148 28.0391V28.0117L2.07617 27.082L2.04883 26.8633L2.28125 26.7266L2.22656 25.9609H1.88477C1.83008 25.6875 1.80273 25.4733 1.80273 25.3184C1.80273 25.1543 1.83008 24.8672 1.88477 24.457C1.89388 24.457 1.89844 24.4525 1.89844 24.4434C1.90755 24.4342 1.91211 24.4297 1.91211 24.4297C1.91211 24.375 1.89844 24.334 1.87109 24.3066C1.84375 24.2702 1.81185 24.252 1.77539 24.252L1.35156 24.1152L1.13281 23.9238L0.873047 23.8965L0.900391 23.3906L1.13281 23.3086L2.22656 22.8848L2.95117 22.5977L5.68555 22.748L6.27344 22.6387C6.42839 22.5931 6.67448 22.5703 7.01172 22.5703H7.51758L8.40625 22.666L9.02148 22.6934L9.25391 22.666L9.74609 22.6387L9.8418 22.666L10.0605 22.9121H11.291L11.9883 23.1855L12.3301 23.0215L13.1914 23.1855L13.4512 23.4453C13.6243 23.6185 13.7611 23.7188 13.8613 23.7461L14.9004 23.8145L15.8301 24.334L16.3359 24.6211C16.2812 24.7305 16.2539 24.7943 16.2539 24.8125C16.2539 24.931 16.3542 25.0632 16.5547 25.209L16.582 25.5781L16.7734 26.1387ZM14.7363 26.4121L14.5176 25.9883L14.4219 25.6602L13.4512 24.6758C13.3236 24.5026 13.2324 24.3978 13.1777 24.3613C13.1322 24.3158 13.0547 24.2702 12.9453 24.2246L12.7812 24.3613C11.5326 23.86 10.5299 23.6094 9.77344 23.6094H8.46094L7.3125 23.418L6.5332 23.6914L4.76953 23.6367C4.51432 23.6823 4.31836 23.7826 4.18164 23.9375C4.05404 24.0833 3.99023 24.2747 3.99023 24.5117L3.94922 25.5508L3.92188 25.8242L3.67578 25.9883C3.82161 26.0885 3.92643 26.1888 3.99023 26.2891C4.06315 26.3802 4.09961 26.485 4.09961 26.6035C4.09961 26.6673 4.08138 26.7357 4.04492 26.8086L3.86719 27.4512L4.04492 28.0117V28.709L4.18164 30.3359L4.12695 30.5547H3.99023C3.79883 30.5547 3.70312 30.6504 3.70312 30.8418C3.70312 30.9785 3.7487 31.0605 3.83984 31.0879L4.26367 31.0605H5.49414L5.83594 31.0059L6.05469 31.3066L6.45117 31.2246L7.44922 30.9512L9.33594 30.7461L10.4297 30.418L11.373 30.1035C11.765 29.985 11.9974 29.8665 12.0703 29.748L12.3574 29.3516L12.8906 28.9824L12.9453 28.7637L13.3145 28.5449L13.4512 28.3398L14.3945 27.4512L14.5723 26.8906L14.7363 26.4121Z" fill="white"/>
<path d="M21.6406 38.5664L21.5859 39.291L21.6133 39.8516C21.6133 39.9883 21.5449 40.1022 21.4082 40.1934L21.4902 40.5215L21.1895 40.5762L20.2871 41.1367L19.9316 41.1914L19.5078 41.4512C19.4714 41.4512 19.4395 41.4512 19.4121 41.4512C19.3848 41.4603 19.3529 41.4694 19.3164 41.4785C19.1432 41.4785 19.0566 41.4238 19.0566 41.3145V40.9727L18.9746 40.3574L19.166 38.8672L19.2344 36.9668C19.2617 36.502 19.362 36.1191 19.5352 35.8184L19.3711 35.3945C19.2161 35.112 19.1387 34.9479 19.1387 34.9023C19.1387 34.7565 19.2526 34.4922 19.4805 34.1094C19.5716 33.9727 19.6172 33.8223 19.6172 33.6582C19.6172 33.5306 19.4805 33.4121 19.207 33.3027L19.2617 33.0703L19.1387 33.0156V32.6055L19.3711 31.6484V29.2969L19.6445 28.2031C19.6445 28.0573 19.5352 27.8978 19.3164 27.7246V27.082L19.2617 24.6211C19.2617 24.4388 19.3802 24.1289 19.6172 23.6914L19.8223 23.3359C19.485 23.181 19.3164 23.0397 19.3164 22.9121C19.3164 22.9486 19.3438 22.7708 19.3984 22.3789L19.1113 22.1328V21.5996L19.0566 20.957V20.834L19.2891 20.1367L19.0566 19.166L19.1113 18.6875L18.8379 17.0879V16.8691L18.9473 16.418L19.0293 15.8574L20.2598 15.1875L20.8203 14.7637L21.0527 14.709L21.2441 15.0098L21.2715 15.5977L21.3809 15.9941L21.4082 16.2266V16.5547L21.3262 17.5664V17.6484L21.3535 18.127C21.3535 18.291 21.3353 18.4095 21.2988 18.4824L20.9707 19.1934L20.9297 19.4668C21.112 19.4759 21.2259 19.5078 21.2715 19.5625C21.3262 19.6081 21.3535 19.7357 21.3535 19.9453V20.2461C21.3535 20.4284 21.2441 20.5788 21.0254 20.6973V21.0391L20.998 21.3125V21.4219L21.2441 21.8184L21.1348 24.4297V26.3027L20.7656 27.0273L20.9707 28.0664L20.6836 28.7363C20.7109 28.8184 20.793 28.9232 20.9297 29.0508L21.1621 29.2969L21.2715 33.7266L20.9297 34.1094C20.957 34.2826 20.9707 34.4694 20.9707 34.6699C20.9707 34.9889 20.9297 35.2897 20.8477 35.5723L20.9707 35.873H21.3535V36.3789L21.6406 38.5664Z" fill="white"/>
<path d="M37.0215 40.0703L36.8848 40.3301L36.666 40.6582L36.2695 40.8086L35.709 41.1094L35.1758 41.2734C34.8385 41.4102 34.6426 41.4785 34.5879 41.4785C34.5241 41.4785 34.4603 41.4421 34.3965 41.3691C34.3418 41.3053 34.3145 41.2461 34.3145 41.1914C34.3145 41.1003 34.36 40.8952 34.4512 40.5762C34.4967 40.485 34.5332 40.3255 34.5605 40.0977L34.2871 40.2754L33.0566 40.6855C32.8105 40.804 32.5645 40.8633 32.3184 40.8633H31.7578L31.1152 41.1641L30.6777 41.2188L29.4062 41.4785L28.8867 41.3965L28.5176 41.5332L28.2578 41.5879L27.8477 41.5605L26.9453 41.3691L26.3301 41.3145C25.9108 41.2598 25.5462 41.1185 25.2363 40.8906C24.9355 40.6536 24.7122 40.3529 24.5664 39.9883L24.1973 39.8516L24.1152 39.5098L24.0879 39.2637L23.8965 38.6211L24.4023 37.6094L24.5664 37.1582C24.6211 37.0397 24.7897 36.8665 25.0723 36.6387L26.1387 35.7637L26.5898 35.5996L27.3418 35.2852C27.3509 35.2852 27.3691 35.2897 27.3965 35.2988C27.4238 35.2988 27.4512 35.3034 27.4785 35.3125C27.6608 34.9206 28.0072 34.7246 28.5176 34.7246L28.5996 34.6426H28.8867C29.0052 34.4967 29.1237 34.3965 29.2422 34.3418C29.3607 34.2871 29.584 34.2279 29.9121 34.1641L31.6211 33.8633L32.127 33.918L32.7695 33.7812L33.918 33.6582C34.3099 33.5671 34.5059 33.3802 34.5059 33.0977C34.5059 33.0612 34.4967 33.0339 34.4785 33.0156L34.3418 32.4004L34.4512 31.5117C34.4238 31.3203 34.3555 31.1836 34.2461 31.1016C34.1367 31.0104 33.9727 30.9512 33.7539 30.9238L33.5625 30.6094C33.362 30.2812 33.1979 30.0716 33.0703 29.9805C32.9427 29.8802 32.7012 29.7936 32.3457 29.7207L31.5664 29.543L30.8145 29.5156L30.4453 29.5703C30.3633 29.5339 30.2995 29.4883 30.2539 29.4336C30.2083 29.3789 30.1719 29.2969 30.1445 29.1875L29.7754 29.3516L29.3516 29.748L28.0117 30.418C27.7292 30.5729 27.5423 30.7233 27.4512 30.8691L27.2598 31.1426C27.1686 31.2884 27.0456 31.3613 26.8906 31.3613L26.6172 31.3066L26.2207 31.1152L25.7969 31.0332C25.6602 30.9876 25.5234 30.9102 25.3867 30.8008C25.25 30.6914 25.1816 30.5911 25.1816 30.5C25.1816 30.4453 25.1908 30.418 25.209 30.418L25.4414 30.2539L25.8789 29.9121L26.3574 29.8301L27.082 29.4609L27.9844 29.1602L28.2305 29.1055L28.8184 28.791L29.2969 28.873L30.9512 28.5176L31.6484 28.5449H32.1816L32.7422 28.7363L34.3691 29.0508L34.6152 29.1875V29.3789L34.4238 29.4883C34.4785 29.8073 34.5924 29.9668 34.7656 29.9668C34.7839 29.9577 34.7975 29.9531 34.8066 29.9531C34.8158 29.944 34.8294 29.9395 34.8477 29.9395L35.2305 29.7754H35.2852C35.3763 29.7754 35.4355 29.821 35.4629 29.9121L35.7363 30.418L36.0234 30.6367V30.9512L35.9688 31.6484C35.9688 31.9492 36.1146 32.209 36.4062 32.4277L36.584 34.4512L36.2148 34.957L36.6387 35.4492L36.666 35.627L36.584 36.9121L36.6934 37.8965V38.4297L36.502 38.4844C36.5202 38.7122 36.5339 38.8581 36.543 38.9219C36.5521 38.9857 36.584 39.0814 36.6387 39.209C36.6934 39.3275 36.7572 39.4688 36.8301 39.6328L37.0215 40.0703ZM34.8477 37.6914C34.7109 37.5729 34.6243 37.4727 34.5879 37.3906L34.6426 36.8301L34.5332 35.5723L34.6973 35.2031L34.2598 34.957L34.0273 35.0117L32.7695 34.9297L32.1816 34.957L31.7305 34.6426L31.457 34.8066L30.7051 34.834L30.1719 35.0391L29.8574 34.8613L29.4746 35.0938L27.4238 36.0781L26.9727 36.4062L26.6172 36.9395L26.1387 37.2266C26.0658 37.2995 26.0293 37.3815 26.0293 37.4727C26.0293 37.4727 26.0293 37.4772 26.0293 37.4863C26.0384 37.4954 26.0475 37.5091 26.0566 37.5273L26.166 37.6914L26.1387 37.8145L26.4395 39.0449L26.1387 39.8242L26.3574 40.0977L26.7266 39.6602C26.8542 39.7695 26.9727 39.8607 27.082 39.9336C27.1914 40.0065 27.3236 40.0703 27.4785 40.125C27.6335 40.1706 27.8294 40.2207 28.0664 40.2754L28.3535 40.6582L29.2969 40.7539L29.5566 40.4941L29.8301 40.6309L30.0215 40.5215L30.1719 40.4395C30.3906 40.5124 30.5182 40.5488 30.5547 40.5488C30.8281 40.5488 31.1836 40.4212 31.6211 40.166C31.6484 40.1478 31.6849 40.1296 31.7305 40.1113C31.776 40.084 31.8444 40.043 31.9355 39.9883C32.7559 39.9883 33.2982 39.8197 33.5625 39.4824L33.8359 39.127L34.5059 38.5664L34.5332 38.4023L34.5059 38.2246C34.6426 38.179 34.7292 38.1243 34.7656 38.0605C34.8021 37.9967 34.8294 37.8737 34.8477 37.6914Z" fill="white"/>
<path d="M51.9512 38.1152L51.4863 39.4004V39.4551L51.541 39.6602L51.8145 39.9883L51.7051 40.7266L51.7598 41.7793L51.623 42.1211L51.6504 43.5703L51.4453 44.0488L51.3086 44.7188L51.0898 45.1699L51.1172 45.8672L50.6387 47.043L50.5293 47.3574L50.1328 47.6035L49.0938 48.9297L48.4785 49.8457C48.2507 50.2012 48.0182 50.4336 47.7812 50.543L47.4258 50.748L47.084 51.1035L46.6602 51.3633L46.4141 51.582L45.8262 51.7461C45.8171 51.7461 45.5254 51.8783 44.9512 52.1426L44.0898 52.457L42.8594 52.8125L41.5742 52.6758L40.8906 52.5938C40.5625 52.5664 40.2845 52.4889 40.0566 52.3613L39.127 51.7734L38.6621 51.6641L38.293 51.1582L37.5684 50.7207C37.3952 50.5749 37.3086 50.3197 37.3086 49.9551C37.3086 49.5723 37.4408 49.2077 37.7051 48.8613C37.7871 48.7611 37.9648 48.6973 38.2383 48.6699L38.4023 49.0664L38.5391 49.4492L39.0723 50.1875L39.6055 51.0215C39.7969 51.2129 39.9382 51.3086 40.0293 51.3086H40.0566L40.248 51.2812L41.3965 51.7461L42.3535 51.8145C42.472 51.9056 42.5905 51.9512 42.709 51.9512C42.8001 51.9512 42.9232 51.8919 43.0781 51.7734L43.3926 51.8145C43.7754 51.8145 44.3223 51.6549 45.0332 51.3359C45.6621 51.026 46.0449 50.7936 46.1816 50.6387L47.2207 49.5723L47.8633 49.1758C48.1003 48.9935 48.2962 48.6562 48.4512 48.1641L48.793 47.043L49.2988 46.2637L49.2168 45.6758L49.4629 44.582L49.4902 43.4609C49.4902 43.0781 49.5768 42.6953 49.75 42.3125L49.9688 41.5605L49.8047 40.918L49.6543 39.0176L49.627 38.7031V38.5664L49.8594 37.8418L49.709 37.6367L49.2988 37.8418L48.8203 38.1152L48.4238 38.5391L47.1113 39.373L46.4414 40.0156L45.4023 40.7812C45.1107 40.9818 44.8874 41.1094 44.7324 41.1641L43.8301 41.3145L43.3379 41.5059C43.1374 41.5605 42.987 41.5879 42.8867 41.5879C42.5312 41.5879 42.0573 41.474 41.4648 41.2461C40.8724 41.0182 40.4668 40.7858 40.248 40.5488C39.8926 40.1934 39.7148 39.7376 39.7148 39.1816L39.7422 38.8945C39.9336 38.7669 40.0293 38.6484 40.0293 38.5391C40.0293 38.5208 40.0247 38.5072 40.0156 38.498C40.0156 38.4798 40.0111 38.4661 40.002 38.457L39.7148 38.0605L39.6875 37.6641L39.7695 37.3086L40.3027 36.0781L40.1934 35.5996V35.4219C40.1934 35.3216 40.2298 35.0983 40.3027 34.752L40.5625 33.7539C40.6172 33.5169 40.6628 33.2891 40.6992 33.0703L40.7266 32.0176L40.9863 30.9512C40.9863 30.8236 40.918 30.6641 40.7812 30.4727L40.3984 30.418L40.3574 30.1855L40.8633 29.5977L41.1777 29.4883L41.6562 29.3516L43.0234 28.5723H43.1055C43.2422 28.5723 43.3516 28.627 43.4336 28.7363C43.5156 28.8457 43.5566 28.987 43.5566 29.1602V29.2422L43.1328 30.2812L42.9414 31.3066L42.5996 32.8789L42.5176 33.8086C42.472 33.9453 42.3991 34.0273 42.2988 34.0547L41.875 34.1641C41.7292 34.2188 41.6562 34.3236 41.6562 34.4785C41.6562 34.6973 41.8431 34.8066 42.2168 34.8066L41.8203 37.6367L41.7109 38.457L41.793 38.6758L41.9844 38.9219L42.3809 39.5781L43.1602 39.8789L43.5293 40.3027L43.7207 40.3848H43.8301L44.2812 40.0703L45.5938 39.6328L46.1543 39.2363L47.1113 38.5664L48.0137 37.6914L48.6016 37.3359L48.8477 37.1855L49.3535 35.873L49.4355 35.8184L49.4902 35.5723L49.7773 35.2305L49.6543 34.4785L49.7773 34.2734L49.709 33.6855L49.8047 33.3848L49.5723 32.1816L49.4629 30.5273L49.0664 29.7207C49.0482 29.6842 49.0391 29.625 49.0391 29.543V29.3242L49.627 29.1328L50.0508 28.7363L50.8574 28.627L51.1719 28.5449C51.4362 28.7272 51.5684 28.8822 51.5684 29.0098V29.0781L51.4863 29.5703L51.541 30.5547L51.418 30.9512V31.3066L51.2539 31.9219L51.2812 32.127C51.418 32.4551 51.5228 32.7012 51.5957 32.8652C51.6686 33.0293 51.7051 33.1569 51.7051 33.248V33.6035L51.7598 34.4785L51.5684 34.957C51.5319 35.0664 51.5137 35.1484 51.5137 35.2031C51.5137 35.4583 51.6595 35.7181 51.9512 35.9824L51.9238 36.3242L51.9512 38.1152Z" fill="white"/>
<mask id="mask0_0_1231" style="mask-type:luminance" maskUnits="userSpaceOnUse" x="59" y="0" width="77" height="28">
<path d="M59.1202 10.0302L74.2584 27.3404L135.104 0L59.1202 10.0302Z" fill="white"/>
</mask>
<g mask="url(#mask0_0_1231)">
<path d="M135.104 0H59.1202V27.3403H135.104V0Z" fill="white"/>
</g>
<path fill-rule="evenodd" clip-rule="evenodd" d="M59.1202 10.0302L66.6882 18.6864L135.102 0.00170898L59.1202 10.0302Z" fill="white"/>
<mask id="mask1_0_1231" style="mask-type:luminance" maskUnits="userSpaceOnUse" x="56" y="0" width="80" height="59">
<path d="M102.245 14.7655L77.2299 30.0814L56.4061 59H56.4078L89.2649 44.236L114.28 28.9186L135.104 0.00164339V0L135.103 0.00164339L102.245 14.7655Z" fill="white"/>
</mask>
<g mask="url(#mask1_0_1231)">
<path d="M135.104 0H56.4061V59H135.104V0Z" fill="white"/>
</g>
<path fill-rule="evenodd" clip-rule="evenodd" d="M56.4061 59H56.4078L89.2649 44.236L114.28 28.9186L132.333 3.85109L135.104 0.00164339V0L102.245 14.7655L125.9 6.18439L107.739 23.9295L84.261 33.5033L56.4061 59Z" fill="white"/>
<path fill-rule="evenodd" clip-rule="evenodd" d="M56.406 59.0001H56.4077L89.2648 44.2361L62.6282 53.3053L56.406 59.0001Z" fill="white"/>
<path fill-rule="evenodd" clip-rule="evenodd" d="M135.104 0.00164339V0L102.245 14.7655L115.613 9.91645L135.104 0.00164339Z" fill="white"/>
<mask id="mask2_0_1231" style="mask-type:luminance" maskUnits="userSpaceOnUse" x="56" y="31" width="77" height="28">
<path d="M132.39 48.9697L117.252 31.6594L56.406 58.9998L132.39 48.9697Z" fill="white"/>
</mask>
<g mask="url(#mask2_0_1231)">
<path d="M132.39 31.6594H56.406V58.9997H132.39V31.6594Z" fill="white"/>
</g>
<path fill-rule="evenodd" clip-rule="evenodd" d="M124.822 40.3151L117.252 31.6594L56.406 58.9998L124.822 40.3151Z" fill="white"/>
</svg>
