<svg width="109" height="47" viewBox="0 0 109 47" fill="none" xmlns="http://www.w3.org/2000/svg">
<path d="M14.2344 18.2617L14.0469 18.9062C13.9766 19.1797 13.8945 19.3594 13.8008 19.4453C13.707 19.5234 13.5156 19.5977 13.2266 19.668C13.0859 19.7148 12.9922 19.75 12.9453 19.7734L13.2031 19.9844C13.1484 20.1875 13.0234 20.3867 12.8281 20.582C12.625 20.5977 12.4805 20.625 12.3945 20.6641C12.3086 20.7031 12.2109 20.7891 12.1016 20.9219L12.3008 21.0156L11.8438 21.3789L11.2344 21.6367L10.9766 21.8359L10.2852 22C10.2227 22.0078 10.0117 22.1211 9.65234 22.3398L9.24219 22.5742L9.07812 22.5273L8.55078 22.7148L7.56641 22.9609L6.94531 23.1719L6.37109 23.125L6.03125 23.3008L5.69141 23.2773L5.45703 23.3711L5.14062 23.3242C4.91406 23.3242 4.68359 23.3711 4.44922 23.4648L3.46484 23.875L3.21875 23.9688L3.17188 24.1797L3.27734 25.5273L3.17188 25.7734L3.34766 26.9453V27.1797C3.10547 27.2031 2.98438 27.293 2.98438 27.4492V27.4961L3.27734 28.1406L3.37109 29.6523L3.41797 30.2266C3.41797 30.4297 3.33594 30.5586 3.17188 30.6133L2.79688 30.7305L2.43359 31.0703L2.14062 31.0938L1.58984 31.3867C1.52734 31.418 1.48828 31.4336 1.47266 31.4336C1.29297 31.4336 1.20312 31.3281 1.20312 31.1172C1.20312 31.0391 1.21094 30.9844 1.22656 30.9531L1.47266 30.5195L1.40234 29.8281L1.63672 27.9297L1.47266 27.0625L1.68359 25.8672L1.63672 25.4336L1.83594 24.707V24.3555H1.66016L1.63672 24.1094L1.68359 23.8984L1.83594 23.5586L1.8125 23.3711L1.83594 23.0781L1.66016 22.8438L1.58984 21.5195L1.63672 21.2031L1.66016 20.6758L1.76562 20.3242L1.58984 19.8906V19.8672L1.63672 19.0703L1.61328 18.8828L1.8125 18.7656L1.76562 18.1094H1.47266C1.42578 17.875 1.40234 17.6914 1.40234 17.5586C1.40234 17.418 1.42578 17.1719 1.47266 16.8203C1.48047 16.8203 1.48438 16.8164 1.48438 16.8086C1.49219 16.8008 1.49609 16.7969 1.49609 16.7969C1.49609 16.75 1.48438 16.7148 1.46094 16.6914C1.4375 16.6602 1.41016 16.6445 1.37891 16.6445L1.01562 16.5273L0.828125 16.3633L0.605469 16.3398L0.628906 15.9062L0.828125 15.8359L1.76562 15.4727L2.38672 15.2266L4.73047 15.3555L5.23438 15.2617C5.36719 15.2227 5.57812 15.2031 5.86719 15.2031H6.30078L7.0625 15.2852L7.58984 15.3086L7.78906 15.2852L8.21094 15.2617L8.29297 15.2852L8.48047 15.4961H9.53516L10.1328 15.7305L10.4258 15.5898L11.1641 15.7305L11.3867 15.9531C11.5352 16.1016 11.6523 16.1875 11.7383 16.2109L12.6289 16.2695L13.4258 16.7148L13.8594 16.9609C13.8125 17.0547 13.7891 17.1094 13.7891 17.125C13.7891 17.2266 13.875 17.3398 14.0469 17.4648L14.0703 17.7812L14.2344 18.2617ZM12.4883 18.4961L12.3008 18.1328L12.2188 17.8516L11.3867 17.0078C11.2773 16.8594 11.1992 16.7695 11.1523 16.7383C11.1133 16.6992 11.0469 16.6602 10.9531 16.6211L10.8125 16.7383C9.74219 16.3086 8.88281 16.0938 8.23438 16.0938H7.10938L6.125 15.9297L5.45703 16.1641L3.94531 16.1172C3.72656 16.1562 3.55859 16.2422 3.44141 16.375C3.33203 16.5 3.27734 16.6641 3.27734 16.8672L3.24219 17.7578L3.21875 17.9922L3.00781 18.1328C3.13281 18.2188 3.22266 18.3047 3.27734 18.3906C3.33984 18.4688 3.37109 18.5586 3.37109 18.6602C3.37109 18.7148 3.35547 18.7734 3.32422 18.8359L3.17188 19.3867L3.32422 19.8672V20.4648L3.44141 21.8594L3.39453 22.0469H3.27734C3.11328 22.0469 3.03125 22.1289 3.03125 22.293C3.03125 22.4102 3.07031 22.4805 3.14844 22.5039L3.51172 22.4805H4.56641L4.85938 22.4336L5.04688 22.6914L5.38672 22.6211L6.24219 22.3867L7.85938 22.2109L8.79688 21.9297L9.60547 21.6602C9.94141 21.5586 10.1406 21.457 10.2031 21.3555L10.4492 21.0156L10.9062 20.6992L10.9531 20.5117L11.2695 20.3242L11.3867 20.1484L12.1953 19.3867L12.3477 18.9062L12.4883 18.4961Z" fill="white"/>
<path d="M18.4062 28.9141L18.3594 29.5352L18.3828 30.0156C18.3828 30.1328 18.3242 30.2305 18.207 30.3086L18.2773 30.5898L18.0195 30.6367L17.2461 31.1172L16.9414 31.1641L16.5781 31.3867C16.5469 31.3867 16.5195 31.3867 16.4961 31.3867C16.4727 31.3945 16.4453 31.4023 16.4141 31.4102C16.2656 31.4102 16.1914 31.3633 16.1914 31.2695V30.9766L16.1211 30.4492L16.2852 29.1719L16.3438 27.543C16.3672 27.1445 16.4531 26.8164 16.6016 26.5586L16.4609 26.1953C16.3281 25.9531 16.2617 25.8125 16.2617 25.7734C16.2617 25.6484 16.3594 25.4219 16.5547 25.0938C16.6328 24.9766 16.6719 24.8477 16.6719 24.707C16.6719 24.5977 16.5547 24.4961 16.3203 24.4023L16.3672 24.2031L16.2617 24.1562V23.8047L16.4609 22.9844V20.9688L16.6953 20.0312C16.6953 19.9062 16.6016 19.7695 16.4141 19.6211V19.0703L16.3672 16.9609C16.3672 16.8047 16.4688 16.5391 16.6719 16.1641L16.8477 15.8594C16.5586 15.7266 16.4141 15.6055 16.4141 15.4961C16.4141 15.5273 16.4375 15.375 16.4844 15.0391L16.2383 14.8281V14.3711L16.1914 13.8203V13.7148L16.3906 13.1172L16.1914 12.2852L16.2383 11.875L16.0039 10.5039V10.3164L16.0977 9.92969L16.168 9.44922L17.2227 8.875L17.7031 8.51172L17.9023 8.46484L18.0664 8.72266L18.0898 9.22656L18.1836 9.56641L18.207 9.76562V10.0469L18.1367 10.9141V10.9844L18.1602 11.3945C18.1602 11.5352 18.1445 11.6367 18.1133 11.6992L17.832 12.3086L17.7969 12.543C17.9531 12.5508 18.0508 12.5781 18.0898 12.625C18.1367 12.6641 18.1602 12.7734 18.1602 12.9531V13.2109C18.1602 13.3672 18.0664 13.4961 17.8789 13.5977V13.8906L17.8555 14.125V14.2188L18.0664 14.5586L17.9727 16.7969V18.4023L17.6562 19.0234L17.832 19.9141L17.5859 20.4883C17.6094 20.5586 17.6797 20.6484 17.7969 20.7578L17.9961 20.9688L18.0898 24.7656L17.7969 25.0938C17.8203 25.2422 17.832 25.4023 17.832 25.5742C17.832 25.8477 17.7969 26.1055 17.7266 26.3477L17.832 26.6055H18.1602V27.0391L18.4062 28.9141Z" fill="white"/>
<path d="M31.5898 30.2031L31.4727 30.4258L31.2852 30.707L30.9453 30.8359L30.4648 31.0938L30.0078 31.2344C29.7188 31.3516 29.5508 31.4102 29.5039 31.4102C29.4492 31.4102 29.3945 31.3789 29.3398 31.3164C29.293 31.2617 29.2695 31.2109 29.2695 31.1641C29.2695 31.0859 29.3086 30.9102 29.3867 30.6367C29.4258 30.5586 29.457 30.4219 29.4805 30.2266L29.2461 30.3789L28.1914 30.7305C27.9805 30.832 27.7695 30.8828 27.5586 30.8828H27.0781L26.5273 31.1406L26.1523 31.1875L25.0625 31.4102L24.6172 31.3398L24.3008 31.457L24.0781 31.5039L23.7266 31.4805L22.9531 31.3164L22.4258 31.2695C22.0664 31.2227 21.7539 31.1016 21.4883 30.9062C21.2305 30.7031 21.0391 30.4453 20.9141 30.1328L20.5977 30.0156L20.5273 29.7227L20.5039 29.5117L20.3398 28.9609L20.7734 28.0938L20.9141 27.707C20.9609 27.6055 21.1055 27.457 21.3477 27.2617L22.2617 26.5117L22.6484 26.3711L23.293 26.1016C23.3008 26.1016 23.3164 26.1055 23.3398 26.1133C23.3633 26.1133 23.3867 26.1172 23.4102 26.125C23.5664 25.7891 23.8633 25.6211 24.3008 25.6211L24.3711 25.5508H24.6172C24.7188 25.4258 24.8203 25.3398 24.9219 25.293C25.0234 25.2461 25.2148 25.1953 25.4961 25.1406L26.9609 24.8828L27.3945 24.9297L27.9453 24.8125L28.9297 24.707C29.2656 24.6289 29.4336 24.4688 29.4336 24.2266C29.4336 24.1953 29.4258 24.1719 29.4102 24.1562L29.293 23.6289L29.3867 22.8672C29.3633 22.7031 29.3047 22.5859 29.2109 22.5156C29.1172 22.4375 28.9766 22.3867 28.7891 22.3633L28.625 22.0938C28.4531 21.8125 28.3125 21.6328 28.2031 21.5547C28.0938 21.4688 27.8867 21.3945 27.582 21.332L26.9141 21.1797L26.2695 21.1562L25.9531 21.2031C25.8828 21.1719 25.8281 21.1328 25.7891 21.0859C25.75 21.0391 25.7188 20.9688 25.6953 20.875L25.3789 21.0156L25.0156 21.3555L23.8672 21.9297C23.625 22.0625 23.4648 22.1914 23.3867 22.3164L23.2227 22.5508C23.1445 22.6758 23.0391 22.7383 22.9062 22.7383L22.6719 22.6914L22.332 22.5273L21.9688 22.457C21.8516 22.418 21.7344 22.3516 21.6172 22.2578C21.5 22.1641 21.4414 22.0781 21.4414 22C21.4414 21.9531 21.4492 21.9297 21.4648 21.9297L21.6641 21.7891L22.0391 21.4961L22.4492 21.4258L23.0703 21.1094L23.8438 20.8516L24.0547 20.8047L24.5586 20.5352L24.9688 20.6055L26.3867 20.3008L26.9844 20.3242H27.4414L27.9219 20.4883L29.3164 20.7578L29.5273 20.875V21.0391L29.3633 21.1328C29.4102 21.4062 29.5078 21.543 29.6562 21.543C29.6719 21.5352 29.6836 21.5312 29.6914 21.5312C29.6992 21.5234 29.7109 21.5195 29.7266 21.5195L30.0547 21.3789H30.1016C30.1797 21.3789 30.2305 21.418 30.2539 21.4961L30.4883 21.9297L30.7344 22.1172V22.3867L30.6875 22.9844C30.6875 23.2422 30.8125 23.4648 31.0625 23.6523L31.2148 25.3867L30.8984 25.8203L31.2617 26.2422L31.2852 26.3945L31.2148 27.4961L31.3086 28.3398V28.7969L31.1445 28.8438C31.1602 29.0391 31.1719 29.1641 31.1797 29.2188C31.1875 29.2734 31.2148 29.3555 31.2617 29.4648C31.3086 29.5664 31.3633 29.6875 31.4258 29.8281L31.5898 30.2031ZM29.7266 28.1641C29.6094 28.0625 29.5352 27.9766 29.5039 27.9062L29.5508 27.4258L29.457 26.3477L29.5977 26.0312L29.2227 25.8203L29.0234 25.8672L27.9453 25.7969L27.4414 25.8203L27.0547 25.5508L26.8203 25.6914L26.1758 25.7148L25.7188 25.8906L25.4492 25.7383L25.1211 25.9375L23.3633 26.7812L22.9766 27.0625L22.6719 27.5195L22.2617 27.7656C22.1992 27.8281 22.168 27.8984 22.168 27.9766C22.168 27.9766 22.168 27.9805 22.168 27.9883C22.1758 27.9961 22.1836 28.0078 22.1914 28.0234L22.2852 28.1641L22.2617 28.2695L22.5195 29.3242L22.2617 29.9922L22.4492 30.2266L22.7656 29.8516C22.875 29.9453 22.9766 30.0234 23.0703 30.0859C23.1641 30.1484 23.2773 30.2031 23.4102 30.25C23.543 30.2891 23.7109 30.332 23.9141 30.3789L24.1602 30.707L24.9688 30.7891L25.1914 30.5664L25.4258 30.6836L25.5898 30.5898L25.7188 30.5195C25.9062 30.582 26.0156 30.6133 26.0469 30.6133C26.2812 30.6133 26.5859 30.5039 26.9609 30.2852C26.9844 30.2695 27.0156 30.2539 27.0547 30.2383C27.0938 30.2148 27.1523 30.1797 27.2305 30.1328C27.9336 30.1328 28.3984 29.9883 28.625 29.6992L28.8594 29.3945L29.4336 28.9141L29.457 28.7734L29.4336 28.6211C29.5508 28.582 29.625 28.5352 29.6562 28.4805C29.6875 28.4258 29.7109 28.3203 29.7266 28.1641Z" fill="white"/>
<path d="M44.3867 28.5273L43.9883 29.6289V29.6758L44.0352 29.8516L44.2695 30.1328L44.1758 30.7656L44.2227 31.668L44.1055 31.9609L44.1289 33.2031L43.9531 33.6133L43.8359 34.1875L43.6484 34.5742L43.6719 35.1719L43.2617 36.1797L43.168 36.4492L42.8281 36.6602L41.9375 37.7969L41.4102 38.582C41.2148 38.8867 41.0156 39.0859 40.8125 39.1797L40.5078 39.3555L40.2148 39.6602L39.8516 39.8828L39.6406 40.0703L39.1367 40.2109C39.1289 40.2109 38.8789 40.3242 38.3867 40.5508L37.6484 40.8203L36.5938 41.125L35.4922 41.0078L34.9062 40.9375C34.625 40.9141 34.3867 40.8477 34.1914 40.7383L33.3945 40.2344L32.9961 40.1406L32.6797 39.707L32.0586 39.332C31.9102 39.207 31.8359 38.9883 31.8359 38.6758C31.8359 38.3477 31.9492 38.0352 32.1758 37.7383C32.2461 37.6523 32.3984 37.5977 32.6328 37.5742L32.7734 37.9141L32.8906 38.2422L33.3477 38.875L33.8047 39.5898C33.9688 39.7539 34.0898 39.8359 34.168 39.8359H34.1914L34.3555 39.8125L35.3398 40.2109L36.1602 40.2695C36.2617 40.3477 36.3633 40.3867 36.4648 40.3867C36.543 40.3867 36.6484 40.3359 36.7812 40.2344L37.0508 40.2695C37.3789 40.2695 37.8477 40.1328 38.457 39.8594C38.9961 39.5938 39.3242 39.3945 39.4414 39.2617L40.332 38.3477L40.8828 38.0078C41.0859 37.8516 41.2539 37.5625 41.3867 37.1406L41.6797 36.1797L42.1133 35.5117L42.043 35.0078L42.2539 34.0703L42.2773 33.1094C42.2773 32.7812 42.3516 32.4531 42.5 32.125L42.6875 31.4805L42.5469 30.9297L42.418 29.3008L42.3945 29.0312V28.9141L42.5938 28.293L42.4648 28.1172L42.1133 28.293L41.7031 28.5273L41.3633 28.8906L40.2383 29.6055L39.6641 30.1562L38.7734 30.8125C38.5234 30.9844 38.332 31.0938 38.1992 31.1406L37.4258 31.2695L37.0039 31.4336C36.832 31.4805 36.7031 31.5039 36.6172 31.5039C36.3125 31.5039 35.9062 31.4062 35.3984 31.2109C34.8906 31.0156 34.543 30.8164 34.3555 30.6133C34.0508 30.3086 33.8984 29.918 33.8984 29.4414L33.9219 29.1953C34.0859 29.0859 34.168 28.9844 34.168 28.8906C34.168 28.875 34.1641 28.8633 34.1562 28.8555C34.1562 28.8398 34.1523 28.8281 34.1445 28.8203L33.8984 28.4805L33.875 28.1406L33.9453 27.8359L34.4023 26.7812L34.3086 26.3711V26.2188C34.3086 26.1328 34.3398 25.9414 34.4023 25.6445L34.625 24.7891C34.6719 24.5859 34.7109 24.3906 34.7422 24.2031L34.7656 23.3008L34.9883 22.3867C34.9883 22.2773 34.9297 22.1406 34.8125 21.9766L34.4844 21.9297L34.4492 21.7305L34.8828 21.2266L35.1523 21.1328L35.5625 21.0156L36.7344 20.3477H36.8047C36.9219 20.3477 37.0156 20.3945 37.0859 20.4883C37.1562 20.582 37.1914 20.7031 37.1914 20.8516V20.9219L36.8281 21.8125L36.6641 22.6914L36.3711 24.0391L36.3008 24.8359C36.2617 24.9531 36.1992 25.0234 36.1133 25.0469L35.75 25.1406C35.625 25.1875 35.5625 25.2773 35.5625 25.4102C35.5625 25.5977 35.7227 25.6914 36.043 25.6914L35.7031 28.1172L35.6094 28.8203L35.6797 29.0078L35.8438 29.2188L36.1836 29.7812L36.8516 30.0391L37.168 30.4023L37.332 30.4727H37.4258L37.8125 30.2031L38.9375 29.8281L39.418 29.4883L40.2383 28.9141L41.0117 28.1641L41.5156 27.8594L41.7266 27.7305L42.1602 26.6055L42.2305 26.5586L42.2773 26.3477L42.5234 26.0547L42.418 25.4102L42.5234 25.2344L42.4648 24.7305L42.5469 24.4727L42.3477 23.4414L42.2539 22.0234L41.9141 21.332C41.8984 21.3008 41.8906 21.25 41.8906 21.1797V20.9922L42.3945 20.8281L42.7578 20.4883L43.4492 20.3945L43.7188 20.3242C43.9453 20.4805 44.0586 20.6133 44.0586 20.7227V20.7812L43.9883 21.2031L44.0352 22.0469L43.9297 22.3867V22.6914L43.7891 23.2188L43.8125 23.3945C43.9297 23.6758 44.0195 23.8867 44.082 24.0273C44.1445 24.168 44.1758 24.2773 44.1758 24.3555V24.6602L44.2227 25.4102L44.0586 25.8203C44.0273 25.9141 44.0117 25.9844 44.0117 26.0312C44.0117 26.25 44.1367 26.4727 44.3867 26.6992L44.3633 26.9922L44.3867 28.5273Z" fill="white"/>
<mask id="mask0_0_165" style="mask-type:luminance" maskUnits="userSpaceOnUse" x="48" y="0" width="61" height="22">
<path d="M48.4761 7.86202L60.342 21.4305L108.035 0L48.4761 7.86202Z" fill="white"/>
</mask>
<g mask="url(#mask0_0_165)">
<path d="M108.035 0H48.4761V21.4304H108.035V0Z" fill="white"/>
</g>
<path fill-rule="evenodd" clip-rule="evenodd" d="M48.4761 7.86195L54.4082 14.647L108.034 0.0012207L48.4761 7.86195Z" fill="white"/>
<mask id="mask1_0_165" style="mask-type:luminance" maskUnits="userSpaceOnUse" x="46" y="0" width="63" height="47">
<path d="M82.2787 11.5738L62.671 23.5789L46.3486 46.2464H46.3498L72.1045 34.6739L91.7122 22.6675L108.035 0.00128815V0L108.034 0.00128815L82.2787 11.5738Z" fill="white"/>
</mask>
<g mask="url(#mask1_0_165)">
<path d="M108.035 0H46.3486V46.2464H108.035V0Z" fill="white"/>
</g>
<path fill-rule="evenodd" clip-rule="evenodd" d="M46.3486 46.2464H46.3498L72.1045 34.6739L91.7122 22.6675L105.863 3.01863L108.035 0.00128815V0L82.2787 11.5738L100.821 4.84756L86.585 18.7569L68.1823 26.2612L46.3486 46.2464Z" fill="white"/>
<path fill-rule="evenodd" clip-rule="evenodd" d="M46.3485 46.2464H46.3498L72.1044 34.6738L51.2256 41.7826L46.3485 46.2464Z" fill="white"/>
<path fill-rule="evenodd" clip-rule="evenodd" d="M108.035 0.00128815V0L82.2785 11.5738L92.7569 7.77289L108.035 0.00128815Z" fill="white"/>
<mask id="mask2_0_165" style="mask-type:luminance" maskUnits="userSpaceOnUse" x="46" y="24" width="60" height="23">
<path d="M105.907 38.3843L94.0415 24.8159L46.3485 46.2464L105.907 38.3843Z" fill="white"/>
</mask>
<g mask="url(#mask2_0_165)">
<path d="M105.907 24.8159H46.3485V46.2463H105.907V24.8159Z" fill="white"/>
</g>
<path fill-rule="evenodd" clip-rule="evenodd" d="M99.9752 31.6006L94.0415 24.8159L46.3485 46.2464L99.9752 31.6006Z" fill="white"/>
</svg>
