<svg width="11" height="21" viewBox="0 0 11 21" fill="none" xmlns="http://www.w3.org/2000/svg">
<path fill-rule="evenodd" clip-rule="evenodd" d="M1.00136 0.485426C1.71395 -0.105365 2.77054 -0.00663196 3.36133 0.705952L9.44107 8.03905C9.45278 8.05317 9.46471 8.06754 9.47684 8.08215C9.65238 8.29359 9.86869 8.55415 10.0299 8.80551C10.2264 9.11185 10.4512 9.56558 10.4512 10.1558C10.4512 10.746 10.2264 11.1997 10.0299 11.506C9.86869 11.7574 9.65238 12.0179 9.47684 12.2294C9.46471 12.244 9.45278 12.2584 9.44107 12.2725L3.36133 19.6056C2.77054 20.3182 1.71395 20.4169 1.00136 19.8261C0.288778 19.2353 0.190046 18.1787 0.780836 17.4661L6.84174 10.1558L0.780836 2.84539C0.190046 2.13281 0.288778 1.07622 1.00136 0.485426Z" fill="#5B6B79"/>
</svg>
