<svg width="20" height="20" viewBox="0 0 20 20" fill="none" xmlns="http://www.w3.org/2000/svg">
<path opacity="0.4" d="M6.34678 0.948006C6.49641 0.882715 6.71619 0.807302 6.97688 0.842211C7.26029 0.88016 7.47037 1.0419 7.59117 1.14289C7.71943 1.25012 8.04202 1.57005 8.04202 1.57005C8.57649 2.10003 9.2882 2.36511 9.99998 2.36531C10.7118 2.36511 11.4235 2.10003 11.9579 1.57005C11.9579 1.57005 12.2805 1.25012 12.4088 1.14289C12.5296 1.0419 12.7397 0.88016 13.0231 0.842211C13.2838 0.807302 13.5036 0.882715 13.6532 0.948006C13.7907 1.00803 13.9459 1.09565 14.0964 1.18065L16.1582 2.36178C16.2918 2.45633 16.4724 2.60686 16.5761 2.85044C16.6893 3.11635 16.6528 3.38436 16.6259 3.53939C16.5968 3.70713 16.5364 3.93809 16.4787 4.1591C16.1155 5.54951 17.0027 7.04525 18.439 7.43018L18.4643 7.43696C18.6816 7.49518 18.8852 7.54972 19.0445 7.60714C19.1935 7.66085 19.4424 7.76168 19.6179 7.98931C19.7791 8.19852 19.8219 8.42778 19.8387 8.59005C19.8542 8.73973 19.8542 8.91877 19.8541 9.09296V10.9072C19.8542 11.0814 19.8542 11.2604 19.8387 11.4101C19.8219 11.5724 19.7792 11.8016 19.6179 12.0108C19.4425 12.2385 19.1935 12.3393 19.0445 12.393C18.8853 12.4504 18.4391 12.57 18.4391 12.57C17.0033 12.9549 16.1166 14.4503 16.4801 15.8409C16.4801 15.8409 16.5982 16.2928 16.6273 16.4606C16.6542 16.6156 16.6908 16.8836 16.5776 17.1496C16.4739 17.3932 16.2933 17.5437 16.1597 17.6383L14.0979 18.8194L14.0978 18.8195C13.9473 18.9044 13.7921 18.9921 13.6546 19.0521C13.505 19.1174 13.2852 19.1928 13.0244 19.1579C12.741 19.1199 12.5309 18.9581 12.4101 18.8571C12.2819 18.7499 11.9594 18.4299 11.9594 18.4299C11.4246 17.8995 10.7123 17.6341 9.99998 17.6339C9.28767 17.6341 8.57541 17.8995 8.04059 18.4299C8.04059 18.4299 7.71807 18.7499 7.58981 18.8571C7.46901 18.9581 7.25893 19.1199 6.97552 19.1579C6.71481 19.1928 6.495 19.1174 6.34536 19.0521C6.20784 18.9921 6.05263 18.9044 5.90212 18.8195L5.90204 18.8194L3.8403 17.6383C3.70663 17.5437 3.52602 17.3932 3.42236 17.1496C3.3092 16.8836 3.34573 16.6156 3.37263 16.4606C3.40174 16.2928 3.5199 15.8409 3.5199 15.8409C3.88335 14.4503 2.99667 12.9549 1.56091 12.57C1.56091 12.57 1.11468 12.4504 0.955435 12.393C0.806464 12.3393 0.557481 12.2385 0.382038 12.0108C0.220809 11.8016 0.178072 11.5724 0.161252 11.4101C0.145737 11.2604 0.145778 11.0814 0.145817 10.9072V9.09296C0.145778 8.91877 0.145737 8.73973 0.161253 8.59005C0.178074 8.42778 0.220815 8.19852 0.382057 7.98931C0.557509 7.76168 0.806493 7.66085 0.955474 7.60714C1.11472 7.54972 1.31834 7.49518 1.53564 7.43696L1.56094 7.43018C2.99725 7.04525 3.8845 5.54951 3.52128 4.1591C3.46352 3.93809 3.40317 3.70713 3.37408 3.53939C3.34719 3.38436 3.31068 3.11635 3.42385 2.85044C3.52752 2.60686 3.70812 2.45633 3.84178 2.36178L5.90351 1.18065C6.05405 1.09565 6.20923 1.00803 6.34678 0.948006Z" fill="#9DB9D1"/>
<path d="M13.2083 10.0001C13.2083 11.772 11.7719 13.2084 9.99999 13.2084C8.22808 13.2084 6.79166 11.772 6.79166 10.0001C6.79166 8.22817 8.22808 6.79175 9.99999 6.79175C11.7719 6.79175 13.2083 8.22817 13.2083 10.0001Z" fill="#9DB9D1"/>
</svg>
